<mxfile host="app.diagrams.net" modified="2020-11-18T12:26:30.572Z" agent="5.0 (Macintosh; Intel Mac OS X 10_15_6) AppleWebKit/537.36 (KHTML, like Gecko) Chrome/86.0.4240.193 Safari/537.36" etag="mR5J0rW-vQvP1KouwjMD" version="13.9.9" type="github">
  <diagram id="34DXqysSNYo2WBfeXcWk" name="Page-1">
    <mxGraphModel dx="1186" dy="684" grid="1" gridSize="10" guides="1" tooltips="1" connect="1" arrows="1" fold="1" page="1" pageScale="1" pageWidth="850" pageHeight="1100" math="0" shadow="0">
      <root>
        <mxCell id="0" />
        <mxCell id="1" parent="0" />
        <mxCell id="zLLbJdp_vr80DpxYpoYv-2" value="VoteService" style="shape=umlLifeline;perimeter=lifelinePerimeter;whiteSpace=wrap;html=1;container=1;collapsible=0;recursiveResize=0;outlineConnect=0;" vertex="1" parent="1">
          <mxGeometry x="200" y="130" width="100" height="390" as="geometry" />
        </mxCell>
        <mxCell id="zLLbJdp_vr80DpxYpoYv-13" value="" style="html=1;points=[];perimeter=orthogonalPerimeter;" vertex="1" parent="zLLbJdp_vr80DpxYpoYv-2">
          <mxGeometry x="45" y="60" width="10" height="140" as="geometry" />
        </mxCell>
        <mxCell id="zLLbJdp_vr80DpxYpoYv-23" value="" style="html=1;points=[];perimeter=orthogonalPerimeter;" vertex="1" parent="zLLbJdp_vr80DpxYpoYv-2">
          <mxGeometry x="45" y="240" width="10" height="120" as="geometry" />
        </mxCell>
        <mxCell id="zLLbJdp_vr80DpxYpoYv-8" value="Cache" style="shape=umlLifeline;perimeter=lifelinePerimeter;whiteSpace=wrap;html=1;container=1;collapsible=0;recursiveResize=0;outlineConnect=0;" vertex="1" parent="1">
          <mxGeometry x="350" y="130" width="100" height="390" as="geometry" />
        </mxCell>
        <mxCell id="zLLbJdp_vr80DpxYpoYv-15" value="" style="html=1;points=[];perimeter=orthogonalPerimeter;" vertex="1" parent="zLLbJdp_vr80DpxYpoYv-8">
          <mxGeometry x="45" y="90" width="10" height="30" as="geometry" />
        </mxCell>
        <mxCell id="zLLbJdp_vr80DpxYpoYv-29" value="" style="html=1;points=[];perimeter=orthogonalPerimeter;" vertex="1" parent="zLLbJdp_vr80DpxYpoYv-8">
          <mxGeometry x="45" y="320" width="10" height="30" as="geometry" />
        </mxCell>
        <mxCell id="zLLbJdp_vr80DpxYpoYv-9" value="DB" style="shape=umlLifeline;perimeter=lifelinePerimeter;whiteSpace=wrap;html=1;container=1;collapsible=0;recursiveResize=0;outlineConnect=0;" vertex="1" parent="1">
          <mxGeometry x="500" y="130" width="100" height="390" as="geometry" />
        </mxCell>
        <mxCell id="zLLbJdp_vr80DpxYpoYv-26" value="" style="html=1;points=[];perimeter=orthogonalPerimeter;" vertex="1" parent="zLLbJdp_vr80DpxYpoYv-9">
          <mxGeometry x="45" y="260" width="10" height="30" as="geometry" />
        </mxCell>
        <mxCell id="zLLbJdp_vr80DpxYpoYv-10" value="MQ" style="shape=umlLifeline;perimeter=lifelinePerimeter;whiteSpace=wrap;html=1;container=1;collapsible=0;recursiveResize=0;outlineConnect=0;" vertex="1" parent="1">
          <mxGeometry x="650" y="130" width="100" height="390" as="geometry" />
        </mxCell>
        <mxCell id="zLLbJdp_vr80DpxYpoYv-19" value="" style="html=1;points=[];perimeter=orthogonalPerimeter;" vertex="1" parent="zLLbJdp_vr80DpxYpoYv-10">
          <mxGeometry x="45" y="140" width="10" height="30" as="geometry" />
        </mxCell>
        <mxCell id="zLLbJdp_vr80DpxYpoYv-11" value="" style="shape=umlLifeline;participant=umlActor;perimeter=lifelinePerimeter;whiteSpace=wrap;html=1;container=1;collapsible=0;recursiveResize=0;verticalAlign=top;spacingTop=36;outlineConnect=0;" vertex="1" parent="1">
          <mxGeometry x="100" y="130" width="20" height="390" as="geometry" />
        </mxCell>
        <mxCell id="zLLbJdp_vr80DpxYpoYv-14" value="vote" style="html=1;verticalAlign=bottom;startArrow=oval;endArrow=block;startSize=8;" edge="1" target="zLLbJdp_vr80DpxYpoYv-13" parent="1" source="zLLbJdp_vr80DpxYpoYv-11">
          <mxGeometry relative="1" as="geometry">
            <mxPoint x="185" y="190" as="sourcePoint" />
            <Array as="points">
              <mxPoint x="170" y="200" />
            </Array>
          </mxGeometry>
        </mxCell>
        <mxCell id="zLLbJdp_vr80DpxYpoYv-16" value="validate" style="html=1;verticalAlign=bottom;endArrow=block;entryX=0;entryY=0;" edge="1" target="zLLbJdp_vr80DpxYpoYv-15" parent="1" source="zLLbJdp_vr80DpxYpoYv-2">
          <mxGeometry relative="1" as="geometry">
            <mxPoint x="325" y="220" as="sourcePoint" />
          </mxGeometry>
        </mxCell>
        <mxCell id="zLLbJdp_vr80DpxYpoYv-17" value="success" style="html=1;verticalAlign=bottom;endArrow=open;dashed=1;endSize=8;exitX=0;exitY=0.95;" edge="1" source="zLLbJdp_vr80DpxYpoYv-15" parent="1" target="zLLbJdp_vr80DpxYpoYv-2">
          <mxGeometry relative="1" as="geometry">
            <mxPoint x="325" y="296" as="targetPoint" />
          </mxGeometry>
        </mxCell>
        <mxCell id="zLLbJdp_vr80DpxYpoYv-20" value="send vote msg" style="html=1;verticalAlign=bottom;endArrow=block;entryX=0;entryY=0;" edge="1" target="zLLbJdp_vr80DpxYpoYv-19" parent="1" source="zLLbJdp_vr80DpxYpoYv-2">
          <mxGeometry relative="1" as="geometry">
            <mxPoint x="625" y="270" as="sourcePoint" />
          </mxGeometry>
        </mxCell>
        <mxCell id="zLLbJdp_vr80DpxYpoYv-21" value="success" style="html=1;verticalAlign=bottom;endArrow=open;dashed=1;endSize=8;exitX=0;exitY=0.95;" edge="1" source="zLLbJdp_vr80DpxYpoYv-19" parent="1" target="zLLbJdp_vr80DpxYpoYv-2">
          <mxGeometry relative="1" as="geometry">
            <mxPoint x="625" y="346" as="targetPoint" />
          </mxGeometry>
        </mxCell>
        <mxCell id="zLLbJdp_vr80DpxYpoYv-22" value="success" style="html=1;verticalAlign=bottom;endArrow=open;dashed=1;endSize=8;" edge="1" parent="1">
          <mxGeometry relative="1" as="geometry">
            <mxPoint x="110" y="308.5" as="targetPoint" />
            <mxPoint x="250" y="309" as="sourcePoint" />
          </mxGeometry>
        </mxCell>
        <mxCell id="zLLbJdp_vr80DpxYpoYv-24" value="pull/push msg" style="html=1;verticalAlign=bottom;endArrow=block;entryX=1;entryY=0;" edge="1" target="zLLbJdp_vr80DpxYpoYv-23" parent="1" source="zLLbJdp_vr80DpxYpoYv-10">
          <mxGeometry relative="1" as="geometry">
            <mxPoint x="315" y="370" as="sourcePoint" />
          </mxGeometry>
        </mxCell>
        <mxCell id="zLLbJdp_vr80DpxYpoYv-27" value="save vote info" style="html=1;verticalAlign=bottom;endArrow=block;entryX=0;entryY=0;" edge="1" target="zLLbJdp_vr80DpxYpoYv-26" parent="1" source="zLLbJdp_vr80DpxYpoYv-2">
          <mxGeometry relative="1" as="geometry">
            <mxPoint x="475" y="390" as="sourcePoint" />
          </mxGeometry>
        </mxCell>
        <mxCell id="zLLbJdp_vr80DpxYpoYv-28" value="success" style="html=1;verticalAlign=bottom;endArrow=open;dashed=1;endSize=8;exitX=0;exitY=0.95;" edge="1" source="zLLbJdp_vr80DpxYpoYv-26" parent="1" target="zLLbJdp_vr80DpxYpoYv-2">
          <mxGeometry relative="1" as="geometry">
            <mxPoint x="475" y="466" as="targetPoint" />
          </mxGeometry>
        </mxCell>
        <mxCell id="zLLbJdp_vr80DpxYpoYv-30" value="update cache" style="html=1;verticalAlign=bottom;endArrow=block;entryX=0;entryY=0;" edge="1" target="zLLbJdp_vr80DpxYpoYv-29" parent="1">
          <mxGeometry relative="1" as="geometry">
            <mxPoint x="249.5" y="450" as="sourcePoint" />
          </mxGeometry>
        </mxCell>
        <mxCell id="zLLbJdp_vr80DpxYpoYv-31" value="success" style="html=1;verticalAlign=bottom;endArrow=open;dashed=1;endSize=8;" edge="1" source="zLLbJdp_vr80DpxYpoYv-29" parent="1">
          <mxGeometry relative="1" as="geometry">
            <mxPoint x="249.5" y="480" as="targetPoint" />
            <Array as="points">
              <mxPoint x="320" y="480" />
            </Array>
          </mxGeometry>
        </mxCell>
      </root>
    </mxGraphModel>
  </diagram>
</mxfile>
